<?xml version="1.0" encoding="UTF-8"?>
<svg version="1.1" xmlns="http://www.w3.org/2000/svg" width="225" height="225">
<path d="M0 0 C74.25 0 148.5 0 225 0 C225 74.25 225 148.5 225 225 C150.75 225 76.5 225 0 225 C0 150.75 0 76.5 0 0 Z " fill="#CA2027" transform="translate(0,0)"/>
<path d="M0 0 C20.68570879 15.74053153 31.20317283 38.23454818 36.3125 63.15234375 C36.489021 63.93150146 36.66554199 64.71065918 36.84741211 65.51342773 C37.75697916 70.67432548 37.53979973 75.9256077 37.5625 81.15234375 C37.5934375 82.88677734 37.5934375 82.88677734 37.625 84.65625 C37.6617675 92.88297731 36.51262342 100.23513095 34.3125 108.15234375 C34.11366211 108.88324219 33.91482422 109.61414063 33.70996094 110.3671875 C27.61371378 131.65426469 15.06257966 150.09986821 -4.234375 161.39453125 C-25.54023535 172.24027464 -51.75449606 172.26717719 -74.29394531 164.98681641 C-96.78248976 157.14656295 -117.51340186 143.80780617 -128.6875 122.15234375 C-137.4918092 102.1910587 -138.49131616 80.9391752 -131.6875 60.15234375 C-131.47851074 59.50861816 -131.26952148 58.86489258 -131.05419922 58.20166016 C-122.06461474 31.50225756 -101.3156728 9.21789868 -76.3125 -3.28515625 C-51.4364963 -15.61223006 -23.3960656 -16.0847951 0 0 Z " fill="#C92027" transform="translate(161.6875,33.84765625)"/>
<path d="M0 0 C0.66 0 1.32 0 2 0 C2.02578125 1.0621875 2.0515625 2.124375 2.078125 3.21875 C2.45548941 15.96853589 2.45548941 15.96853589 9.4375 26.375 C15.25373967 30.06334711 20.1837326 30.69336053 27 30 C32.09238891 28.65576632 37.14954965 25.86526863 40.05639648 21.36425781 C41.03588484 19.51601667 41.93781295 17.64998247 42.8125 15.75 C43.12380859 15.1003125 43.43511719 14.450625 43.75585938 13.78125 C44.51505446 12.19278029 45.25910519 10.59708737 46 9 C47.37394884 8.91756307 48.74940598 8.8601691 50.125 8.8125 C50.89070313 8.77769531 51.65640625 8.74289063 52.4453125 8.70703125 C55.74044127 9.08491299 58.11818409 10.40873643 61 12 C60.97905273 12.62455078 60.95810547 13.24910156 60.93652344 13.89257812 C60.85264156 16.7615506 60.80111489 19.63026408 60.75 22.5 C60.71648437 23.48226562 60.68296875 24.46453125 60.6484375 25.4765625 C60.56328429 31.86305344 61.19114321 36.73694206 65 42 C66.88278311 43.87935799 66.88278311 43.87935799 69 44.9375 C69.99 45.50791016 69.99 45.50791016 71 46.08984375 C76.39153773 48.54341463 82.44347403 49.01338399 88.15234375 47.38671875 C95.08741584 44.36510385 98.82293671 38.65104839 102 32 C102.66 32 103.32 32 104 32 C104.02712325 34.87506421 104.04689851 37.74986908 104.0625 40.625 C104.07087891 41.43324219 104.07925781 42.24148437 104.08789062 43.07421875 C104.1058955 47.50341918 103.89622662 51.63883424 103 56 C101.81664062 56.17015625 100.63328125 56.3403125 99.4140625 56.515625 C82.68015787 58.79867256 82.68015787 58.79867256 69 68 C68.16574215 70.58825707 68.16574215 70.58825707 69 73 C72.64430709 76.93306367 77.71427104 77.00689557 82.75 77.6875 C83.63816406 77.81705078 84.52632813 77.94660156 85.44140625 78.08007812 C87.62632324 78.39724349 89.81220141 78.70348401 92 79 C85.34595872 89.44376016 75.56552591 96.53914585 63.46484375 99.4921875 C41.79453085 102.66821983 22.30241579 97.92424578 4.0546875 86.08984375 C-6.48504676 78.24144836 -13.86540709 67.03333168 -16 54 C-16.11678799 51.32321927 -16.0454506 48.68158543 -16 46 C-12.56991726 47.3014853 -9.44886104 48.83740119 -6.25 50.625 C-1.19092517 53.20383874 2.37637916 53.53558294 8 53 C9.303997 51.91212963 9.303997 51.91212963 9.21875 49.26953125 C8.55939329 39.41450329 0.16618663 30.67364765 -6.84375 24.33203125 C-8.20205841 23.1883612 -9.59648838 22.0877215 -11 21 C-9.00473175 13.61750747 -5.01126341 5.81688886 0 0 Z " fill="#FDFCFC" transform="translate(69,75)"/>
<path d="M0 0 C20.68570879 15.74053153 31.20317283 38.23454818 36.3125 63.15234375 C36.489021 63.93150146 36.66554199 64.71065918 36.84741211 65.51342773 C37.75697916 70.67432548 37.53979973 75.9256077 37.5625 81.15234375 C37.5934375 82.88677734 37.5934375 82.88677734 37.625 84.65625 C37.6617675 92.88297731 36.51262342 100.23513095 34.3125 108.15234375 C34.11366211 108.88324219 33.91482422 109.61414063 33.70996094 110.3671875 C27.61371378 131.65426469 15.06257966 150.09986821 -4.234375 161.39453125 C-25.54023535 172.24027464 -51.75449606 172.26717719 -74.29394531 164.98681641 C-96.78248976 157.14656295 -117.51340186 143.80780617 -128.6875 122.15234375 C-137.4918092 102.1910587 -138.49131616 80.9391752 -131.6875 60.15234375 C-131.47851074 59.50861816 -131.26952148 58.86489258 -131.05419922 58.20166016 C-122.06461474 31.50225756 -101.3156728 9.21789868 -76.3125 -3.28515625 C-51.4364963 -15.61223006 -23.3960656 -16.0847951 0 0 Z M-97.6875 23.15234375 C-98.43644531 23.82652344 -99.18539062 24.50070313 -99.95703125 25.1953125 C-116.00784931 40.17795002 -125.91105452 62.31039768 -126.92578125 84.2109375 C-127.40755076 103.27121496 -122.81032276 118.79028984 -110.21484375 133.5234375 C-99.29417601 144.88295742 -83.76187468 152.76976572 -68.6875 157.15234375 C-67.6665625 157.45011719 -66.645625 157.74789062 -65.59375 158.0546875 C-45.70115054 162.91582949 -23.59103125 162.52485697 -5.75 151.83984375 C-4.03812511 150.64485784 -2.34903783 149.41638449 -0.6875 148.15234375 C0.08980469 147.56839844 0.86710937 146.98445312 1.66796875 146.3828125 C17.65908738 133.3091785 25.92809521 112.18971028 28.3125 92.15234375 C29.85960024 65.95617348 24.64067703 39.1032686 6.9375 18.83984375 C5.41553699 17.25814499 3.87372902 15.69529751 2.3125 14.15234375 C1.54164063 13.35957031 0.77078125 12.56679688 -0.0234375 11.75 C-10.8768139 1.19517926 -24.03110445 -3.25486876 -38.9375 -3.16015625 C-40.33174194 -3.15169678 -40.33174194 -3.15169678 -41.75415039 -3.14306641 C-63.74143262 -2.75533782 -82.13320354 8.2664964 -97.6875 23.15234375 Z " fill="#FCF8F7" transform="translate(161.6875,33.84765625)"/>
<path d="M0 0 C4.50564795 3.26958524 6.74969672 6.77515273 7.640625 12.28125 C7.92527088 18.50895684 7.01632014 23.58934028 3.20703125 28.6015625 C-1.84120504 33.8326323 -5.61589983 36.71697548 -13.04296875 36.9140625 C-20.14060101 36.82978982 -23.46223867 34.78028845 -28.66796875 29.9140625 C-31.38447534 25.6795081 -31.64164886 22.52786553 -31.79296875 17.6015625 C-31.87804687 16.92867187 -31.963125 16.25578125 -32.05078125 15.5625 C-32.53823431 10.24290358 -30.75802676 6.83349845 -27.62109375 2.58984375 C-20.02753169 -5.66896627 -9.28110299 -5.23249586 0 0 Z " fill="#FAFAFA" transform="translate(162.79296875,85.3984375)"/>
<path d="M0 0 C4.94977328 2.94719325 9.0113979 6.89779579 11.609375 12.09375 C11.75804666 14.21518022 11.8307039 16.34230992 11.859375 18.46875 C11.88515625 19.61085938 11.9109375 20.75296875 11.9375 21.9296875 C11.58078309 25.36945775 10.87577751 26.57360268 8.609375 29.09375 C8.34125 29.733125 8.073125 30.3725 7.796875 31.03125 C5.4937067 35.03148968 1.93495856 37.65188881 -2.390625 39.09375 C-9.57838319 39.79192396 -14.57932398 39.51033878 -20.390625 35.09375 C-25.17288731 30.43901468 -27.43514963 26.03512395 -27.828125 19.40625 C-27.67973942 12.31553925 -24.80632573 6.45193405 -19.765625 1.53125 C-14.04520012 -1.93111243 -6.25250904 -2.37023218 0 0 Z " fill="#F9F9F9" transform="translate(99.390625,64.90625)"/>
<path d="M0 0 C5.62422472 2.94966133 8.6313351 7.11692267 12.1875 12.1875 C13.21591654 13.64410484 14.25079704 15.09617354 15.29296875 16.54296875 C15.96622192 17.5023938 15.96622192 17.5023938 16.65307617 18.48120117 C18.02872454 20.28733012 18.02872454 20.28733012 21 21 C22.92754674 20.58988754 22.92754674 20.58988754 24.94921875 19.78515625 C25.71556641 19.51123047 26.48191406 19.23730469 27.27148438 18.95507812 C28.86370868 18.36684328 30.45488531 17.77576365 32.04492188 17.18164062 C37.65068935 15.18525805 43.27694165 13.45869607 49.06640625 15.85546875 C54.57370239 20.75883163 58.24272525 27.20658293 61 34 C60.67 34.99 60.34 35.98 60 37 C59.34 36.401875 58.68 35.80375 58 35.1875 C51.57261291 30.50086358 44.91883563 28.8551081 37 30 C34.31153453 30.92705706 31.78588243 31.98467902 29.2265625 33.22265625 C26.6268227 34.13028471 25.54118322 33.96681191 23 33 C22.113125 32.505 21.22625 32.01 20.3125 31.5 C16.71453442 29.87073257 13.94697759 29.56775037 10.05078125 29.40625 C7.43091135 28.88726625 6.65418032 28.07237198 5 26 C4.12926971 24.5514954 3.27627919 23.09223763 2.4375 21.625 C-1.0648405 16.36290508 -4.91100051 13.70292619 -11 12 C-16.74347526 11.43821013 -22.42606998 11.35744091 -28 13 C-21.59404348 5.45012267 -10.23639593 -1.95405807 0 0 Z " fill="#F9F7F7" transform="translate(108,51)"/>
<path d="M0 0 C5.40741033 3.06596631 8.72824711 7.7055782 11.625 13.125 C11.625 13.785 11.625 14.445 11.625 15.125 C12.34945312 15.16238281 13.07390625 15.19976562 13.8203125 15.23828125 C19.48236893 15.62330109 23.64304597 16.20873423 28.625 19.125 C31.16285284 20.09457635 32.25423345 20.25444306 34.8515625 19.34765625 C35.64304687 18.96480469 36.43453125 18.58195312 37.25 18.1875 C44.42907964 15.16639171 50.49845242 15.15142716 57.875 17.625 C63.05500493 19.9507165 66.07587728 23.06981407 68.625 28.125 C69.14616477 29.88393111 69.62552493 31.65578617 70.0625 33.4375 C70.89733762 36.95757999 70.89733762 36.95757999 73.359375 39.42578125 C75.49699131 40.38177691 75.49699131 40.38177691 78.625 41.125 C78.295 42.115 77.965 43.105 77.625 44.125 C74.655 43.795 71.685 43.465 68.625 43.125 C68.41875 43.970625 68.2125 44.81625 68 45.6875 C65.41377225 52.15306936 61.15884508 56.65736582 54.75390625 59.46484375 C48.16333972 61.50852401 42.15200135 60.23924591 35.9296875 57.53515625 C31.2092523 54.64688997 28.3521024 50.3063072 26.625 45.125 C26.52802785 42.50960418 26.48577738 39.9270917 26.5 37.3125 C26.49419922 36.26352539 26.49419922 36.26352539 26.48828125 35.19335938 C26.49600438 31.06534438 26.82415368 27.17372305 27.625 23.125 C22.64270224 21.20873163 17.89815333 20.5702885 12.625 20.125 C12.47804687 20.681875 12.33109375 21.23875 12.1796875 21.8125 C9.98486383 29.27994604 6.67449969 34.74639024 0.5 39.5625 C-4.90624391 42.50067604 -10.30949246 42.77259554 -16.375 42.125 C-22.30321126 40.32701565 -25.89090325 37.14619825 -29.375 32.125 C-31.64049085 27.75134405 -31.61187352 23.62736423 -31.5 18.8125 C-31.49097656 18.07193359 -31.48195313 17.33136719 -31.47265625 16.56835938 C-31.44924213 14.75376533 -31.41337615 12.93933929 -31.375 11.125 C-32.695 10.795 -34.015 10.465 -35.375 10.125 C-35.375 8.805 -35.375 7.485 -35.375 6.125 C-34.529375 6.24875 -33.68375 6.3725 -32.8125 6.5 C-28.54142277 6.0340643 -27.08371851 4.54614897 -24.0859375 1.6328125 C-17.6053917 -4.07835344 -7.54923688 -3.27673932 0 0 Z M-24.375 4.125 C-29.50596263 10.78319432 -31.24591068 16.75181592 -30.375 25.125 C-28.56740467 31.32091413 -24.67676583 35.56998765 -19.375 39.125 C-14.29263246 40.81912251 -8.34994403 41.17466032 -3.23828125 39.37109375 C0.72484476 37.17890908 4.92743329 34.4967268 6.25 30 C6.37375 29.38125 6.4975 28.7625 6.625 28.125 C7.285 27.465 7.945 26.805 8.625 26.125 C9.30949048 20.36254527 9.46220348 14.92820749 7 9.625 C2.67933754 5.07693425 -1.67301237 0.57404222 -8.14453125 -0.2109375 C-14.82390842 -0.29668047 -19.12196808 -0.16318932 -24.375 4.125 Z M31.125 26 C27.47977521 32.01561687 27.67516464 38.32057599 28.625 45.125 C30.30561681 50.5683311 34.1409291 53.88120403 38.625 57.125 C44.19766221 58.98255407 50.28004227 58.84652545 55.875 57.125 C61.23990056 53.22325414 65.57949545 48.51356634 67.625 42.125 C68.52982349 35.75313771 68.23304995 30.14933035 64.36328125 24.8515625 C59.70325122 20.22294841 54.02932949 17.8743786 47.5 17.5625 C40.42551119 18.00604162 35.5580148 20.43801647 31.125 26 Z " fill="#121010" transform="translate(102.375,63.875)"/>
<path d="M0 0 C2.55274178 1.28177924 3.27784763 2.79081933 4.59375 5.30078125 C5.02171875 6.09226562 5.4496875 6.88375 5.890625 7.69921875 C6.84375 9.92578125 6.84375 9.92578125 6.84375 12.92578125 C5.08003182 13.95885896 3.30749967 14.97690174 1.53125 15.98828125 C0.54511719 16.55675781 -0.44101563 17.12523438 -1.45703125 17.7109375 C-4.15625 18.92578125 -4.15625 18.92578125 -7.15625 17.92578125 C-8.54296875 15.74609375 -8.54296875 15.74609375 -9.84375 13.05078125 C-10.28074219 12.16648437 -10.71773438 11.2821875 -11.16796875 10.37109375 C-12.15625 7.92578125 -12.15625 7.92578125 -12.15625 4.92578125 C-10.58091914 4.05694419 -8.99560491 3.20619057 -7.40625 2.36328125 C-6.52453125 1.88761719 -5.6428125 1.41195312 -4.734375 0.921875 C-2.15625 -0.07421875 -2.15625 -0.07421875 0 0 Z " fill="#F59120" transform="translate(117.15625,105.07421875)"/>
<path d="M0 0 C3.69230769 0.69230769 3.69230769 0.69230769 5 2 C5.49721541 8.09088872 4.54905922 13.97764066 0.52734375 18.74609375 C-1 20 -1 20 -3.125 19.8125 C-5 19 -5 19 -6 17 C-6.05811549 10.53755787 -5.10639624 6.00467042 -1 1 C-0.67 0.67 -0.34 0.34 0 0 Z " fill="#040404" transform="translate(145,90)"/>
<path d="M0 0 C1.85676657 3.71353314 0.79111576 8.03851734 0 12 C-1.12169515 14.58537053 -2.41546324 16.6487519 -4 19 C-5.65 19 -7.3 19 -9 19 C-10.53995173 15.92009655 -10.22377524 13.41257239 -10 10 C-6.5 0 -6.5 0 0 0 Z " fill="#060606" transform="translate(102,76)"/>
<path d="M0 0 C2.00154884 1.89620416 3.61779437 3.80146297 5.3125 6 C8.52233901 9.80635776 11.52864822 11.69715659 16.58203125 12.31640625 C23.06540249 12.59135086 26.66109641 11.59558813 32 8 C34.4375 7.25 34.4375 7.25 36 7 C31.82106032 11.68547783 27.95213049 14.47046618 21.609375 15.3203125 C14.81269596 15.63304313 9.52057124 14.19653857 4.4296875 9.57421875 C1.7257434 6.58442913 0.35418765 4.01412667 0 0 Z " fill="#1D1D1D" transform="translate(72,91)"/>
<path d="M0 0 C0 0.66 0 1.32 0 2 C-1.0725 2.680625 -2.145 3.36125 -3.25 4.0625 C-7.7341846 7.19142394 -9.70341662 10.71936951 -11 16 C-11.29526163 20.02717496 -11.24538166 23.97165105 -11 28 C-11.66 28 -12.32 28 -13 28 C-13 22.72 -13 17.44 -13 12 C-14.32 11.67 -15.64 11.34 -17 11 C-17 9.68 -17 8.36 -17 7 C-16.154375 7.12375 -15.30875 7.2475 -14.4375 7.375 C-10.12160974 6.90417561 -8.57658274 5.32633897 -5.515625 2.41015625 C-3.63834808 0.66351458 -2.58690538 0 0 0 Z " fill="#050404" transform="translate(84,63)"/>
<path d="M0 0 C2.00154884 1.89620416 3.61779437 3.80146297 5.3125 6 C7.77502298 9.01809219 10.38963242 10.48868334 14 12 C14 12.66 14 13.32 14 14 C8.20857069 12.48319709 3.93981603 9.9978975 0.625 4.875 C0 3 0 3 0 0 Z " fill="#151515" transform="translate(72,91)"/>
<path d="M0 0 C0.66 0 1.32 0 2 0 C2.5775 1.093125 3.155 2.18625 3.75 3.3125 C5.45672651 6.3358441 7.10530868 8.03574518 10 10 C10 10.66 10 11.32 10 12 C5.36505507 10.80815702 3.54899717 8.50210982 0.91796875 4.75390625 C0 3 0 3 0 0 Z " fill="#1D1D1D" transform="translate(130,109)"/>
<path d="M0 0 C0.99 0.33 1.98 0.66 3 1 C2.0919838 2.13199353 1.17316174 3.25532363 0.25 4.375 C-0.26046875 5.00148438 -0.7709375 5.62796875 -1.296875 6.2734375 C-3.08199481 8.08312318 -4.67949644 9.00117455 -7 10 C-5.33248852 6.05860922 -2.77289351 3.2107188 0 0 Z " fill="#1E1E1E" transform="translate(166,112)"/>
</svg>
